<svg width="108" height="108" viewBox="0 0 108 108" fill="none" xmlns="http://www.w3.org/2000/svg">
<mask id="mask0_1_20" style="mask-type:alpha" maskUnits="userSpaceOnUse" x="0" y="0" width="108" height="108">
<rect width="108" height="108" fill="#D9D9D9"/>
</mask>
<g mask="url(#mask0_1_20)">
<path fill-rule="evenodd" clip-rule="evenodd" d="M11.9968 10.4082C22.1456 3.62692 34.0775 0.00744629 46.2834 0.00744629V15.436C71.8463 15.436 92.5691 36.1588 92.5691 61.7217H107.998C107.998 73.9277 104.378 85.8595 97.5969 96.0084C90.8157 106.157 81.1772 114.067 69.9004 118.738C62.4871 121.809 54.5846 123.389 46.6388 123.435C80.5591 123.244 107.998 95.687 107.998 61.7217C107.998 27.6379 80.3672 0.00744629 46.2834 0.00744629C12.329 0.00744629 -15.2209 27.4284 -15.4297 61.3337C-15.3797 53.3988 -13.7997 45.5079 -10.7332 38.1047C-6.06216 26.8279 1.84792 17.1894 11.9968 10.4082ZM-15.4294 62.155C-15.1973 95.9082 12.1311 123.224 45.8892 123.435C41.9969 123.41 38.0976 123.017 34.2435 122.25C22.2721 119.869 11.2757 113.991 2.64482 105.36C-5.98608 96.7294 -11.8638 85.733 -14.2451 73.7616C-15.0091 69.9205 -15.4022 66.0344 -15.4294 62.155Z" fill="#525252"/>
<path fill-rule="evenodd" clip-rule="evenodd" d="M7.79671 87.435C2.71073 79.8233 -0.00390787 70.8744 -0.00390827 61.7198L12.853 61.7198C12.853 43.2574 27.8198 28.2906 46.2822 28.2906L46.2822 15.4337C55.4367 15.4337 64.3857 18.1483 71.9974 23.2343C79.6091 28.3203 85.5417 35.5492 89.045 44.0069C91.3463 49.5628 92.5315 55.485 92.5675 61.44C92.417 36.0056 71.752 15.4337 46.2822 15.4337C20.7191 15.4337 -0.00390939 36.1567 -0.00390827 61.7198C-0.00390716 87.1896 20.568 107.855 46.0024 108.005C40.0474 107.969 34.1252 106.784 28.5693 104.483C20.1116 100.979 12.8827 95.0467 7.79671 87.435ZM46.6003 108.005C71.9111 107.835 92.397 87.3487 92.5673 62.0379C92.5473 64.9497 92.2525 67.8666 91.679 70.7498C89.893 79.7284 85.4847 87.9758 79.0115 94.4491C72.5382 100.922 64.2908 105.331 55.3122 107.117C52.429 107.69 49.5121 107.985 46.6003 108.005Z" fill="#BBBBBB"/>
<path fill-rule="evenodd" clip-rule="evenodd" d="M84.7725 35.9938C89.8586 43.6057 92.5732 52.5547 92.5732 61.7094L79.7161 61.7094C79.7161 80.1721 64.7491 95.1391 46.2864 95.1391L46.2864 107.996C37.1317 107.996 28.1826 105.282 20.5708 100.196C12.959 95.1094 7.02627 87.8804 3.52293 79.4226C1.22157 73.8666 0.0364204 67.9443 0.000379434 61.9892C0.150952 87.424 20.8162 107.996 46.2864 107.996C71.8499 107.996 92.5732 87.2729 92.5732 61.7094C92.5732 36.2392 72.001 15.574 46.5662 15.4234C52.5213 15.4594 58.4436 16.6446 63.9996 18.9459C72.4574 22.4493 79.6864 28.382 84.7725 35.9938ZM45.9684 15.4236C20.6572 15.594 0.170943 36.0802 0.000623601 61.3914C0.0206204 58.4795 0.315443 55.5625 0.888953 52.6793C2.67493 43.7005 7.08333 35.453 13.5567 28.9797C20.03 22.5063 28.2775 18.0979 37.2563 16.312C40.1395 15.7385 43.0565 15.4436 45.9684 15.4236Z" fill="#BBBBBB"/>
<path fill-rule="evenodd" clip-rule="evenodd" d="M27.7116 33.9226C33.2089 30.2496 39.6719 28.2891 46.2835 28.2891V43.717C56.2246 43.717 64.2835 51.7756 64.2835 61.7162L79.7121 61.7162C79.7121 68.3275 77.7515 74.7903 74.0783 80.2874C70.4051 85.7844 65.1843 90.0689 59.076 92.5989C55.0615 94.2617 50.7822 95.1176 46.4793 95.1428C64.8513 95.0374 79.7121 80.1122 79.7121 61.7162C79.7121 43.255 64.7456 28.2891 46.2835 28.2891C27.8867 28.2891 12.9608 43.1492 12.8555 61.5204C12.8807 57.2177 13.7366 52.9386 15.3995 48.9242C17.9296 42.8162 22.2143 37.5956 27.7116 33.9226ZM12.8557 61.947C12.9793 80.2252 27.7737 95.019 46.0527 95.1426C43.9501 95.1281 41.8438 94.9152 39.7619 94.5011C33.2774 93.2113 27.321 90.0277 22.6459 85.3528C17.9708 80.6779 14.7871 74.7218 13.4972 68.2376C13.0831 66.1558 12.8702 64.0495 12.8557 61.947Z" fill="#525252"/>
<path fill-rule="evenodd" clip-rule="evenodd" d="M61.2506 51.7156C63.2285 54.6756 64.2842 58.1557 64.2842 61.7157L46.2842 61.7157L46.2837 61.7161L46.2837 79.7153C42.7236 79.7153 39.2434 78.6597 36.2832 76.6818C33.3231 74.704 31.0159 71.8929 29.6535 68.6039C28.7576 66.441 28.2967 64.1354 28.2836 61.8172C28.3383 71.7114 36.3763 79.7153 46.2837 79.7153C56.2251 79.7153 64.2842 71.6566 64.2842 61.7157C64.2842 51.8122 56.2857 43.7767 46.396 43.7164C48.7107 43.7308 51.0126 44.1917 53.1722 45.0862C56.4614 46.4485 59.2726 48.7556 61.2506 51.7156ZM46.1595 43.7164C36.3167 43.783 28.3503 51.7491 28.2837 61.5914C28.2916 60.4593 28.4062 59.3251 28.6292 58.2041C29.3237 54.7125 31.0381 51.5053 33.5555 48.988C36.0729 46.4707 39.2803 44.7564 42.772 44.0619C43.8931 43.8389 45.0273 43.7243 46.1595 43.7164Z" fill="#BBBBBB"/>
<path fill-rule="evenodd" clip-rule="evenodd" d="M31.3149 71.7231C29.337 68.763 28.2813 65.283 28.2813 61.723L46.2813 61.723L46.2817 61.7225L46.2817 43.7233C49.8418 43.7233 53.322 44.779 56.2822 46.7568C59.2423 48.7346 61.5495 51.5458 62.9119 54.8348C63.8078 56.9976 64.2687 59.3032 64.2818 61.6214C64.2272 51.7272 56.1892 43.7233 46.2817 43.7233C36.3403 43.7233 28.2812 51.782 28.2813 61.723C28.2813 71.6265 36.2797 79.6619 46.1695 79.7223C43.8548 79.7078 41.5528 79.247 39.3932 78.3525C36.1041 76.9901 33.2928 74.6831 31.3149 71.7231ZM46.406 79.7222C56.2487 79.6557 64.2151 71.6896 64.2817 61.8473C64.2739 62.9794 64.1592 64.1135 63.9362 65.2345C63.2417 68.7261 61.5273 71.9334 59.0099 74.4507C56.4925 76.968 53.2851 78.6823 49.7934 79.3768C48.6723 79.5998 47.5382 79.7144 46.406 79.7222Z" fill="#BBBBBB"/>
</g>
</svg>
