<svg width="48" height="48" viewBox="0 0 48 48" fill="none" xmlns="http://www.w3.org/2000/svg">
<g clip-path="url(#clip0_9_47)">
<path fill-rule="evenodd" clip-rule="evenodd" d="M24 48C37.2548 48 48 37.2548 48 24C48 10.7452 37.2548 0 24 0C10.7452 0 0 10.7452 0 24C0 37.2548 10.7452 48 24 48ZM24.8772 23.6196L35.6117 16.1712C35.2487 15.6792 34.6648 15.36 34.0064 15.36H13.9936C13.3601 15.36 12.7956 15.6555 12.4305 16.1161L22.8423 23.6026C23.4486 24.0385 24.2637 24.0454 24.8772 23.6196ZM36 30.562V18.0617L25.6641 25.2336C24.5704 25.9925 23.1173 25.9803 22.0366 25.2032L12 17.9865V30.562C12 31.6631 12.8926 32.5557 13.9936 32.5557H34.0064C35.1074 32.5557 36 31.6631 36 30.562Z" fill="#328CFF"/>
</g>
<defs>
<clipPath id="clip0_9_47">
<rect width="48" height="48" fill="white"/>
</clipPath>
</defs>
</svg>
