<svg width="48" height="48" viewBox="0 0 48 48" fill="none" xmlns="http://www.w3.org/2000/svg">
<g clip-path="url(#clip0_9_44)">
<path fill-rule="evenodd" clip-rule="evenodd" d="M24 48C37.2548 48 48 37.2548 48 24C48 10.7452 37.2548 0 24 0C10.7452 0 0 10.7452 0 24C0 37.2548 10.7452 48 24 48ZM24.0043 13.92H24.7766C27.1159 13.9229 29.3584 14.8541 31.0115 16.509C32.6646 18.1639 33.5931 20.4072 33.5931 22.7462V23.5185C33.5682 23.7936 33.4411 24.0493 33.2368 24.2352C33.0325 24.4211 32.7659 24.5236 32.4897 24.5224H32.4014C32.1104 24.4972 31.8412 24.3576 31.653 24.1342C31.4648 23.9109 31.3728 23.622 31.3972 23.3309V22.7462C31.3972 20.9905 30.6997 19.3068 29.4581 18.0654C28.2165 16.824 26.5325 16.1266 24.7766 16.1266H24.1919C23.8992 16.1514 23.6087 16.059 23.3841 15.8697C23.1596 15.6804 23.0195 15.4097 22.9946 15.1171C22.9697 14.8245 23.0621 14.5339 23.2515 14.3095C23.4408 14.085 23.7116 13.9449 24.0043 13.92ZM27.3067 23.5263C27.0998 23.3194 26.9835 23.0388 26.9835 22.7462C26.9835 22.161 26.751 21.5997 26.3371 21.1859C25.9233 20.7721 25.362 20.5396 24.7766 20.5396C24.484 20.5396 24.2033 20.4234 23.9964 20.2165C23.7895 20.0096 23.6732 19.729 23.6732 19.4364C23.6732 19.1437 23.7895 18.8631 23.9964 18.6563C24.2033 18.4493 24.484 18.3331 24.7766 18.3331C25.9473 18.3331 27.0699 18.798 27.8976 19.6257C28.7254 20.4533 29.1904 21.5758 29.1904 22.7462C29.1904 23.0388 29.0741 23.3194 28.8672 23.5263C28.6603 23.7332 28.3796 23.8495 28.087 23.8495C27.7943 23.8495 27.5136 23.7332 27.3067 23.5263ZM31.8725 33.1518L31.8725 33.1606C31.872 33.3948 31.8224 33.6263 31.7271 33.8401C31.6319 34.0536 31.4933 34.2449 31.32 34.4016C31.1364 34.5687 30.9179 34.693 30.6804 34.7654C30.4568 34.8337 30.2214 34.8543 29.9895 34.8262C27.9588 34.8144 25.6369 33.8565 23.6065 32.7245C21.5458 31.5757 19.7013 30.1992 18.6249 29.2753L18.6087 29.2614L18.5936 29.2464C15.5185 26.1695 13.5444 22.1633 12.9774 17.8493C12.9419 17.6047 12.9609 17.3554 13.0329 17.119C13.1053 16.8814 13.2295 16.6628 13.3965 16.4791C13.5551 16.3036 13.7489 16.1636 13.9653 16.0683C14.1815 15.9732 14.4152 15.9248 14.6512 15.9262H17.9984C18.3835 15.9185 18.7596 16.0437 19.0635 16.2808C19.3693 16.5195 19.583 16.8568 19.6682 17.2354L19.6818 17.2961V17.3583C19.6818 17.5152 19.7178 17.6616 19.7687 17.8689C19.7892 17.9526 19.8122 18.0463 19.8363 18.1546L19.8365 18.1554C19.9598 18.715 20.124 19.2648 20.3276 19.8005L20.5115 20.2843L18.4752 21.2448L18.4726 21.246C18.3379 21.3079 18.2333 21.4206 18.1816 21.5595L18.1784 21.5683L18.1748 21.577C18.1188 21.7133 18.1188 21.8662 18.1748 22.0025L18.1989 22.0612L18.2092 22.1238C18.2785 22.5431 18.5089 23.0871 18.915 23.7201C19.3166 24.3463 19.8703 25.029 20.5478 25.7219C21.8979 27.1024 23.7111 28.494 25.7183 29.5386C25.8496 29.587 25.9945 29.5845 26.1243 29.5311L26.133 29.5275L26.1418 29.5243C26.28 29.4728 26.3924 29.3687 26.4544 29.2347L26.4551 29.2331L27.3711 27.1964L27.8591 27.3744C28.4128 27.5764 28.9794 27.7415 29.555 27.8684L29.5577 27.869L29.5604 27.8697C29.833 27.9326 30.1309 27.986 30.4225 28.0292L30.4431 28.0323L30.4634 28.0368C30.8418 28.1221 31.1789 28.3359 31.4174 28.6419C31.6526 28.9436 31.7776 29.3164 31.772 29.6986L31.8725 33.1518Z" fill="#7DC847"/>
</g>
<defs>
<clipPath id="clip0_9_44">
<rect width="48" height="48" fill="white"/>
</clipPath>
</defs>
</svg>
