<svg width="48" height="48" viewBox="0 0 48 48" fill="none" xmlns="http://www.w3.org/2000/svg">
<path d="M24 48C37.2548 48 48 37.2548 48 24C48 10.7452 37.2548 0 24 0C10.7452 0 0 10.7452 0 24C0 37.2548 10.7452 48 24 48Z" fill="#20C4CB"/>
<path d="M24.0208 39.8971C15.2096 39.8971 8.04163 32.7291 8.04163 23.9179C8.04163 15.1067 15.2096 7.93872 24.0208 7.93872C32.832 7.93872 40 15.1067 40 23.9174C40 32.7286 32.832 39.8971 24.0208 39.8971ZM24.0208 10.6049C16.68 10.6049 10.7083 16.5766 10.7083 23.9174C10.7083 31.2582 16.68 37.2299 24.0208 37.2299C31.3616 37.2299 37.3334 31.2582 37.3334 23.9174C37.3334 16.5771 31.3616 10.6049 24.0208 10.6049Z" fill="white"/>
<path d="M24.0208 39.8971C19.7248 39.8971 17.4768 31.8587 17.4768 23.9179C17.4768 15.9771 19.7243 7.93872 24.0208 7.93872C28.3168 7.93872 30.5648 15.9771 30.5648 23.9179C30.5648 31.8582 28.3168 39.8971 24.0208 39.8971ZM24.0208 10.6049C22.7051 10.6049 20.1435 15.3041 20.1435 23.9174C20.1435 32.5313 22.7045 37.2299 24.0208 37.2299C25.3371 37.2299 27.8981 32.5307 27.8981 23.9174C27.8981 15.3041 25.3371 10.6049 24.0208 10.6049Z" fill="white"/>
<path d="M24.0208 30.4607C16.08 30.4607 8.04163 28.2132 8.04163 23.9172C8.04163 19.6212 16.08 17.3738 24.0208 17.3738C31.9616 17.3738 40 19.6218 40 23.9172C40 28.2132 31.9616 30.4607 24.0208 30.4607ZM24.0208 20.0404C15.4075 20.0404 10.7083 22.6015 10.7083 23.9172C10.7083 25.233 15.4075 27.794 24.0208 27.794C32.6342 27.794 37.3334 25.2335 37.3334 23.9172C37.3334 22.601 32.6342 20.0404 24.0208 20.0404Z" fill="white"/>
</svg>
